<?xml version="1.0" encoding="UTF-8" ?>
<!DOCTYPE svg PUBLIC "-//W3C//DTD SVG 1.1//EN" "http://www.w3.org/Graphics/SVG/1.1/DTD/svg11.dtd">
<svg width="256pt" height="256pt" viewBox="0 0 256 256" version="1.1" xmlns="http://www.w3.org/2000/svg">
<g id="#000000ff">
<path fill="#000000" opacity="1.00" d=" M 37.89 0.00 L 217.98 0.00 C 231.96 3.00 244.41 12.49 250.81 25.30 C 253.78 30.99 255.30 37.30 256.00 43.64 L 256.00 211.27 C 254.99 223.41 249.54 235.20 240.45 243.39 C 232.56 250.76 222.09 255.03 211.38 256.00 L 44.72 256.00 C 31.87 254.95 19.42 248.85 11.20 238.84 C 4.65 231.17 0.93 221.37 0.00 211.38 L 0.00 43.75 C 0.76 36.37 2.77 29.04 6.65 22.67 C 13.31 11.18 24.97 2.90 37.89 0.00 M 107.17 31.00 C 110.03 35.83 111.87 41.30 111.98 46.94 C 112.03 57.59 111.98 68.24 112.00 78.89 C 149.32 100.46 186.66 122.01 223.99 143.56 C 224.01 112.71 223.99 81.85 224.01 51.00 C 223.98 48.02 224.22 44.94 223.22 42.08 C 221.20 35.67 214.81 30.93 208.06 31.01 C 174.43 30.99 140.80 31.01 107.17 31.00 M 31.99 107.80 C 32.01 141.22 31.99 174.64 32.01 208.07 C 31.80 216.58 39.46 224.26 48.00 224.00 C 79.66 224.00 111.32 224.00 142.98 224.00 C 121.41 186.67 99.89 149.30 78.29 111.99 C 68.18 112.01 58.06 111.99 47.95 112.00 C 42.37 112.05 36.88 110.46 31.99 107.80 Z" />
</g>
</svg>
